<svg width="183" height="45" viewBox="0 0 183 45" fill="none" xmlns="http://www.w3.org/2000/svg">
<path d="M39.0814 18.7717L37.2656 18.167V9.84375C37.2656 8.91135 36.8952 8.01714 36.2359 7.35783C35.5766 6.69852 34.6824 6.32812 33.75 6.32812H24.6094V4.21875C24.6094 3.65931 24.3871 3.12278 23.9916 2.7272C23.596 2.33161 23.0594 2.10938 22.5 2.10938C21.9406 2.10938 21.404 2.33161 21.0085 2.7272C20.6129 3.12278 20.3906 3.65931 20.3906 4.21875V6.32812H11.25C10.3176 6.32813 9.42339 6.69852 8.76408 7.35783C8.10477 8.01714 7.73438 8.91135 7.73438 9.84375V18.167L5.91856 18.7717C5.21798 19.0054 4.60881 19.4539 4.17749 20.0534C3.74616 20.6529 3.51459 21.373 3.51563 22.1115V26.7188C3.51563 38.0795 21.2344 42.6393 21.9885 42.8273C22.3243 42.9117 22.6757 42.9117 23.0115 42.8273C23.7656 42.6393 41.4844 38.0795 41.4844 26.7188V22.108C41.4847 21.3701 41.2528 20.6507 40.8215 20.0519C40.3902 19.4531 39.7815 19.0052 39.0814 18.7717ZM11.9531 10.5469H33.0469V16.7607L23.1662 13.4684C22.7341 13.3225 22.266 13.3225 21.8338 13.4684L11.9531 16.7607V10.5469ZM37.2656 26.7188C37.2656 33.1682 27.0563 37.3412 22.5 38.5998C17.9402 37.3395 7.73438 33.1682 7.73438 26.7188V22.6143L20.3906 18.3955V29.5312C20.3906 30.0907 20.6129 30.6272 21.0085 31.0228C21.404 31.4184 21.9406 31.6406 22.5 31.6406C23.0594 31.6406 23.596 31.4184 23.9916 31.0228C24.3871 30.6272 24.6094 30.0907 24.6094 29.5312V18.3955L37.2656 22.6143V26.7188Z" fill="#2C7CC7"/>
<path d="M55.3555 16.7812V31H52.1719V16.7812H55.3555ZM60.9512 22.7773V25.2383H54.4668V22.7773H60.9512ZM61.5762 16.7812V19.252H54.4668V16.7812H61.5762ZM66.5754 22.8945V31H63.5285V20.4336H66.3898L66.5754 22.8945ZM69.7297 20.3555L69.6809 23.1973C69.5507 23.1777 69.3814 23.1615 69.173 23.1484C68.9647 23.1289 68.7857 23.1191 68.6359 23.1191C68.2453 23.1191 67.9068 23.168 67.6203 23.2656C67.3404 23.3568 67.106 23.4935 66.9172 23.6758C66.7349 23.8581 66.5982 24.0859 66.507 24.3594C66.4159 24.6263 66.3703 24.9355 66.3703 25.2871L65.7941 25.0039C65.7941 24.3073 65.8625 23.6693 65.9992 23.0898C66.1359 22.5104 66.3345 22.0091 66.5949 21.5859C66.8553 21.1562 67.1743 20.8242 67.552 20.5898C67.9296 20.3555 68.3592 20.2383 68.841 20.2383C68.9973 20.2383 69.1568 20.248 69.3195 20.2676C69.4823 20.2871 69.619 20.3164 69.7297 20.3555ZM76.5648 31.1953C75.725 31.1953 74.973 31.0618 74.309 30.7949C73.6449 30.528 73.0818 30.1602 72.6195 29.6914C72.1638 29.2161 71.8155 28.6693 71.5746 28.0508C71.3337 27.4323 71.2133 26.7715 71.2133 26.0684V25.6973C71.2133 24.9095 71.324 24.1836 71.5453 23.5195C71.7667 22.8555 72.0889 22.2793 72.5121 21.791C72.9418 21.2962 73.4691 20.9154 74.0941 20.6484C74.7191 20.375 75.432 20.2383 76.2328 20.2383C76.9815 20.2383 77.6488 20.362 78.2348 20.6094C78.8207 20.8503 79.3155 21.1986 79.7191 21.6543C80.1228 22.1035 80.4288 22.6471 80.6371 23.2852C80.852 23.9167 80.9594 24.6263 80.9594 25.4141V26.6641H72.4438V24.7012H77.9711V24.4668C77.9711 24.0957 77.9027 23.7702 77.766 23.4902C77.6358 23.2103 77.4405 22.9954 77.1801 22.8457C76.9262 22.6895 76.6039 22.6113 76.2133 22.6113C75.8422 22.6113 75.5329 22.6895 75.2855 22.8457C75.0382 23.002 74.8396 23.2233 74.6898 23.5098C74.5466 23.7897 74.4424 24.1185 74.3773 24.4961C74.3122 24.8672 74.2797 25.2676 74.2797 25.6973V26.0684C74.2797 26.4785 74.335 26.8529 74.4457 27.1914C74.5564 27.5299 74.7191 27.8197 74.934 28.0605C75.1488 28.3014 75.4092 28.4902 75.7152 28.627C76.0212 28.7637 76.3695 28.832 76.7602 28.832C77.2419 28.832 77.7009 28.7409 78.1371 28.5586C78.5733 28.3698 78.9509 28.0768 79.2699 27.6797L80.6957 29.3105C80.4809 29.623 80.1781 29.9258 79.7875 30.2188C79.4034 30.5052 78.9411 30.7396 78.4008 30.9219C77.8604 31.1042 77.2484 31.1953 76.5648 31.1953ZM86.4566 20.4336V31H83.4V20.4336H86.4566ZM83.2145 17.6992C83.2145 17.2565 83.3707 16.8952 83.6832 16.6152C83.9957 16.3288 84.4059 16.1855 84.9137 16.1855C85.4215 16.1855 85.8316 16.3288 86.1441 16.6152C86.4632 16.8952 86.6227 17.2565 86.6227 17.6992C86.6227 18.1354 86.4632 18.4967 86.1441 18.7832C85.8316 19.0632 85.4215 19.2031 84.9137 19.2031C84.4059 19.2031 83.9957 19.0632 83.6832 18.7832C83.3707 18.4967 83.2145 18.1354 83.2145 17.6992ZM96.1141 20.4336H98.8875V30.6191C98.8875 31.5892 98.6661 32.4128 98.2234 33.0898C97.7872 33.7669 97.1785 34.2812 96.3973 34.6328C95.616 34.9844 94.7013 35.1602 93.6531 35.1602C93.1974 35.1602 92.7221 35.0983 92.2273 34.9746C91.7326 34.8574 91.2671 34.6784 90.8309 34.4375C90.3947 34.2031 90.0301 33.9036 89.7371 33.5391L91.0359 31.7422C91.3354 32.0807 91.6935 32.3542 92.1102 32.5625C92.5268 32.7773 93.0021 32.8848 93.5359 32.8848C94.0242 32.8848 94.4376 32.7969 94.7762 32.6211C95.1147 32.4453 95.3719 32.1882 95.5477 31.8496C95.7299 31.5111 95.8211 31.1009 95.8211 30.6191V22.9043L96.1141 20.4336ZM89.0535 25.8438V25.6387C89.0535 24.8379 89.1512 24.1087 89.3465 23.4512C89.5418 22.7871 89.825 22.2174 90.1961 21.7422C90.5737 21.2604 91.0262 20.8893 91.5535 20.6289C92.0874 20.3685 92.6863 20.2383 93.3504 20.2383C94.0665 20.2383 94.659 20.375 95.1277 20.6484C95.5965 20.9154 95.9773 21.293 96.2703 21.7812C96.5633 22.263 96.7944 22.8327 96.9637 23.4902C97.1329 24.1413 97.2697 24.8477 97.3738 25.6094V25.9609C97.2697 26.6901 97.1199 27.3704 96.9246 28.002C96.7293 28.6335 96.4754 29.1901 96.1629 29.6719C95.8504 30.1471 95.4598 30.5215 94.991 30.7949C94.5288 31.0618 93.9754 31.1953 93.3309 31.1953C92.6733 31.1953 92.0809 31.0618 91.5535 30.7949C91.0262 30.528 90.5737 30.1536 90.1961 29.6719C89.825 29.1901 89.5418 28.6237 89.3465 27.9727C89.1512 27.3216 89.0535 26.612 89.0535 25.8438ZM92.1004 25.6387V25.8438C92.1004 26.2604 92.1395 26.6478 92.2176 27.0059C92.3022 27.3639 92.4259 27.6797 92.5887 27.9531C92.7579 28.2266 92.9663 28.4414 93.2137 28.5977C93.4676 28.7474 93.7638 28.8223 94.1023 28.8223C94.5971 28.8223 94.9975 28.7181 95.3035 28.5098C95.616 28.2949 95.8439 27.9987 95.9871 27.6211C96.1368 27.2435 96.215 26.804 96.2215 26.3027V25.2773C96.2215 24.8607 96.1792 24.4863 96.0945 24.1543C96.0099 23.8223 95.8829 23.5423 95.7137 23.3145C95.5509 23.0866 95.3361 22.9141 95.0691 22.7969C94.8087 22.6732 94.493 22.6113 94.1219 22.6113C93.7898 22.6113 93.4969 22.6895 93.243 22.8457C92.9891 22.9954 92.7775 23.207 92.6082 23.4805C92.4389 23.7539 92.312 24.0762 92.2273 24.4473C92.1427 24.8118 92.1004 25.209 92.1004 25.6387ZM104.697 16V31H101.65V16H104.697ZM104.297 25.3457L103.535 25.3652C103.535 24.623 103.626 23.9427 103.809 23.3242C103.997 22.6992 104.264 22.1556 104.609 21.6934C104.954 21.2311 105.368 20.873 105.85 20.6191C106.338 20.3652 106.875 20.2383 107.461 20.2383C107.982 20.2383 108.457 20.3132 108.887 20.4629C109.316 20.6126 109.688 20.8503 110 21.1758C110.312 21.5013 110.553 21.9277 110.723 22.4551C110.892 22.9824 110.977 23.6237 110.977 24.3789V31H107.91V24.3594C107.91 23.9102 107.845 23.5586 107.715 23.3047C107.591 23.0508 107.409 22.8717 107.168 22.7676C106.934 22.6634 106.647 22.6113 106.309 22.6113C105.911 22.6113 105.583 22.6829 105.322 22.8262C105.062 22.9629 104.857 23.1549 104.707 23.4023C104.557 23.6497 104.45 23.9395 104.385 24.2715C104.326 24.6035 104.297 24.9616 104.297 25.3457ZM119.14 20.4336V22.5723H112.87V20.4336H119.14ZM114.306 17.8164H117.362V27.6895C117.362 27.9824 117.398 28.207 117.47 28.3633C117.542 28.5195 117.659 28.6302 117.821 28.6953C117.984 28.7539 118.193 28.7832 118.446 28.7832C118.629 28.7832 118.785 28.7767 118.915 28.7637C119.045 28.7507 119.166 28.7344 119.277 28.7148V30.9219C119.016 31.0065 118.739 31.0716 118.446 31.1172C118.154 31.1693 117.835 31.1953 117.489 31.1953C116.832 31.1953 116.262 31.0879 115.78 30.873C115.305 30.6582 114.941 30.3197 114.687 29.8574C114.433 29.3887 114.306 28.7799 114.306 28.0312V17.8164ZM133.016 23.4902V29.2227C132.782 29.4896 132.424 29.776 131.942 30.082C131.467 30.388 130.858 30.6517 130.116 30.873C129.373 31.0879 128.488 31.1953 127.459 31.1953C126.528 31.1953 125.682 31.0456 124.92 30.7461C124.159 30.4401 123.504 29.9941 122.957 29.4082C122.411 28.8158 121.987 28.0931 121.688 27.2402C121.395 26.3874 121.248 25.4108 121.248 24.3105V23.4707C121.248 22.3704 121.395 21.3939 121.688 20.541C121.981 19.6882 122.394 18.9688 122.928 18.3828C123.462 17.7904 124.097 17.3411 124.832 17.0352C125.568 16.7292 126.382 16.5762 127.274 16.5762C128.543 16.5762 129.582 16.7812 130.389 17.1914C131.196 17.5951 131.808 18.1549 132.225 18.8711C132.648 19.5872 132.909 20.4108 133.006 21.3418H129.94C129.875 20.8665 129.745 20.4564 129.549 20.1113C129.36 19.7663 129.09 19.5026 128.739 19.3203C128.387 19.1315 127.931 19.0371 127.371 19.0371C126.922 19.0371 126.515 19.1315 126.151 19.3203C125.793 19.5026 125.49 19.7793 125.243 20.1504C124.995 20.5215 124.806 20.9837 124.676 21.5371C124.546 22.084 124.481 22.722 124.481 23.4512V24.3105C124.481 25.0397 124.546 25.681 124.676 26.2344C124.813 26.7878 125.011 27.25 125.272 27.6211C125.532 27.9857 125.861 28.2624 126.258 28.4512C126.662 28.64 127.131 28.7344 127.664 28.7344C128.081 28.7344 128.433 28.7018 128.719 28.6367C129.006 28.5651 129.24 28.4772 129.422 28.373C129.605 28.2624 129.741 28.1615 129.832 28.0703V25.707H127.303V23.4902H133.016ZM139.05 16V31H135.994V16H139.05ZM141.608 25.8242V25.6191C141.608 24.8444 141.719 24.1315 141.94 23.4805C142.162 22.8229 142.487 22.2533 142.917 21.7715C143.346 21.2897 143.874 20.9154 144.499 20.6484C145.124 20.375 145.84 20.2383 146.647 20.2383C147.468 20.2383 148.19 20.375 148.815 20.6484C149.447 20.9154 149.977 21.2897 150.407 21.7715C150.837 22.2533 151.162 22.8229 151.384 23.4805C151.605 24.1315 151.716 24.8444 151.716 25.6191V25.8242C151.716 26.5924 151.605 27.3053 151.384 27.9629C151.162 28.6139 150.837 29.1836 150.407 29.6719C149.977 30.1536 149.45 30.528 148.825 30.7949C148.2 31.0618 147.481 31.1953 146.667 31.1953C145.86 31.1953 145.14 31.0618 144.509 30.7949C143.877 30.528 143.346 30.1536 142.917 29.6719C142.487 29.1836 142.162 28.6139 141.94 27.9629C141.719 27.3053 141.608 26.5924 141.608 25.8242ZM144.665 25.6191V25.8242C144.665 26.2409 144.697 26.6315 144.762 26.9961C144.834 27.3607 144.948 27.6797 145.104 27.9531C145.261 28.2266 145.466 28.4414 145.72 28.5977C145.98 28.7474 146.296 28.8223 146.667 28.8223C147.038 28.8223 147.35 28.7474 147.604 28.5977C147.858 28.4414 148.063 28.2266 148.22 27.9531C148.376 27.6797 148.486 27.3607 148.552 26.9961C148.623 26.6315 148.659 26.2409 148.659 25.8242V25.6191C148.659 25.209 148.623 24.8249 148.552 24.4668C148.486 24.1022 148.376 23.7799 148.22 23.5C148.063 23.2201 147.855 23.002 147.595 22.8457C147.341 22.6895 147.025 22.6113 146.647 22.6113C146.283 22.6113 145.973 22.6895 145.72 22.8457C145.466 23.002 145.261 23.2201 145.104 23.5C144.948 23.7799 144.834 24.1022 144.762 24.4668C144.697 24.8249 144.665 25.209 144.665 25.6191ZM154.127 16H157.174V28.4902L156.861 31H154.127V16ZM163.766 25.5996V25.8047C163.766 26.6055 163.681 27.3346 163.512 27.9922C163.349 28.6497 163.098 29.2194 162.76 29.7012C162.421 30.1764 161.995 30.5443 161.48 30.8047C160.966 31.0651 160.361 31.1953 159.664 31.1953C159.02 31.1953 158.466 31.0618 158.004 30.7949C157.542 30.5215 157.154 30.1439 156.842 29.6621C156.529 29.1803 156.275 28.6172 156.08 27.9727C155.891 27.3281 155.745 26.6348 155.641 25.8926V25.541C155.745 24.7988 155.891 24.1055 156.08 23.4609C156.275 22.8164 156.529 22.2533 156.842 21.7715C157.154 21.2897 157.538 20.9154 157.994 20.6484C158.456 20.375 159.007 20.2383 159.645 20.2383C160.348 20.2383 160.956 20.3717 161.471 20.6387C161.992 20.9056 162.421 21.2799 162.76 21.7617C163.098 22.237 163.349 22.8034 163.512 23.4609C163.681 24.112 163.766 24.8249 163.766 25.5996ZM160.719 25.8047V25.5996C160.719 25.196 160.689 24.8151 160.631 24.457C160.579 24.099 160.484 23.7832 160.348 23.5098C160.217 23.2298 160.032 23.0117 159.791 22.8555C159.557 22.6927 159.254 22.6113 158.883 22.6113C158.518 22.6113 158.209 22.6732 157.955 22.7969C157.701 22.9206 157.496 23.0964 157.34 23.3242C157.184 23.5456 157.07 23.8158 156.998 24.1348C156.926 24.4538 156.887 24.8086 156.881 25.1992V26.2344C156.887 26.7552 156.956 27.2109 157.086 27.6016C157.216 27.9922 157.428 28.2949 157.721 28.5098C158.014 28.7181 158.408 28.8223 158.902 28.8223C159.28 28.8223 159.586 28.7507 159.82 28.6074C160.061 28.4577 160.243 28.2493 160.367 27.9824C160.497 27.7155 160.589 27.3965 160.641 27.0254C160.693 26.6543 160.719 26.2474 160.719 25.8047ZM171.782 28.4805V23.9492C171.782 23.6302 171.734 23.3568 171.636 23.1289C171.538 22.901 171.385 22.722 171.177 22.5918C170.969 22.4616 170.698 22.3965 170.366 22.3965C170.086 22.3965 169.842 22.4453 169.634 22.543C169.432 22.6406 169.276 22.7806 169.165 22.9629C169.061 23.1452 169.009 23.3698 169.009 23.6367H165.962C165.962 23.1615 166.07 22.7188 166.284 22.3086C166.499 21.8984 166.805 21.5371 167.202 21.2246C167.606 20.9121 168.088 20.6712 168.648 20.502C169.208 20.3262 169.836 20.2383 170.532 20.2383C171.359 20.2383 172.095 20.3783 172.739 20.6582C173.39 20.9316 173.905 21.3451 174.282 21.8984C174.66 22.4453 174.849 23.1354 174.849 23.9688V28.3926C174.849 29.0306 174.885 29.5319 174.956 29.8965C175.034 30.2546 175.145 30.5671 175.288 30.834V31H172.212C172.069 30.694 171.961 30.3164 171.89 29.8672C171.818 29.4115 171.782 28.9492 171.782 28.4805ZM172.163 24.5547L172.183 26.2344H170.669C170.331 26.2344 170.038 26.2767 169.79 26.3613C169.549 26.446 169.354 26.5632 169.204 26.7129C169.055 26.8561 168.944 27.0254 168.872 27.2207C168.807 27.4095 168.775 27.6178 168.775 27.8457C168.775 28.0605 168.827 28.2559 168.931 28.4316C169.035 28.6009 169.178 28.7344 169.361 28.832C169.543 28.9297 169.754 28.9785 169.995 28.9785C170.392 28.9785 170.731 28.9004 171.011 28.7441C171.297 28.5879 171.519 28.3991 171.675 28.1777C171.831 27.9499 171.909 27.7383 171.909 27.543L172.642 28.8125C172.525 29.0729 172.381 29.3431 172.212 29.623C172.043 29.8965 171.828 30.1536 171.568 30.3945C171.307 30.6289 170.991 30.821 170.62 30.9707C170.256 31.1204 169.816 31.1953 169.302 31.1953C168.638 31.1953 168.036 31.0618 167.495 30.7949C166.955 30.5215 166.522 30.1471 166.196 29.6719C165.877 29.1966 165.718 28.6497 165.718 28.0312C165.718 27.4779 165.819 26.9863 166.021 26.5566C166.223 26.127 166.525 25.7624 166.929 25.4629C167.339 25.1634 167.853 24.9388 168.472 24.7891C169.09 24.6328 169.813 24.5547 170.64 24.5547H172.163ZM180.864 16V31H177.807V16H180.864Z" fill="white"/>
</svg>
